<?xml version="1.0" encoding="UTF-8" standalone="no"?>
<!DOCTYPE svg PUBLIC "-//W3C//DTD SVG 1.1//EN"
 "http://www.w3.org/Graphics/SVG/1.1/DTD/svg11.dtd">
<!-- Generated by graphviz version 2.38.0 (20140413.2041)
 -->
<!-- Title: two_tasks_deadlocked Pages: 1 -->
<svg width="236pt" height="48pt"
 viewBox="0.00 0.00 235.99 47.81" xmlns="http://www.w3.org/2000/svg" xmlns:xlink="http://www.w3.org/1999/xlink">
<g id="graph0" class="graph" transform="scale(1 1) rotate(0) translate(4 43.8095)">
<title>two_tasks_deadlocked</title>
<polygon fill="white" stroke="none" points="-4,4 -4,-43.8095 231.987,-43.8095 231.987,4 -4,4"/>
<!-- Task 1 -->
<g id="node1" class="node"><title>Task 1</title>
<ellipse fill="none" stroke="black" cx="35.7468" cy="-21.8095" rx="35.9954" ry="18"/>
<text text-anchor="middle" x="35.7468" y="-18.1095" font-family="Times New Roman,serif" font-size="14.00">Task 1</text>
</g>
<!-- Task 2 -->
<g id="node2" class="node"><title>Task 2</title>
<ellipse fill="none" stroke="black" cx="192.24" cy="-21.8095" rx="35.9954" ry="18"/>
<text text-anchor="middle" x="192.24" y="-18.1095" font-family="Times New Roman,serif" font-size="14.00">Task 2</text>
</g>
<!-- Task 1&#45;&gt;Task 2 -->
<g id="edge1" class="edge"><title>Task 1&#45;&gt;Task 2</title>
<path fill="none" stroke="black" d="M71.8038,-21.8095C93.8284,-21.8095 122.454,-21.8095 146.159,-21.8095"/>
<polygon fill="black" stroke="black" points="146.322,-25.3096 156.322,-21.8095 146.322,-18.3096 146.322,-25.3096"/>
<text text-anchor="middle" x="113.994" y="-25.6095" font-family="Times New Roman,serif" font-size="14.00">waits for</text>
</g>
<!-- Task 2&#45;&gt;Task 1 -->
<g id="edge2" class="edge"><title>Task 2&#45;&gt;Task 1</title>
<path fill="none" stroke="black" d="M164.624,-10.2039C156.406,-7.17431 147.219,-4.3331 138.494,-2.80952 117.04,0.936507 110.947,0.936507 89.4937,-2.80952 84.0403,-3.76176 78.4065,-5.22869 72.9417,-6.93463"/>
<polygon fill="black" stroke="black" points="71.6964,-3.66135 63.363,-10.2039 73.9575,-10.2861 71.6964,-3.66135"/>
<text text-anchor="middle" x="113.994" y="-6.60952" font-family="Times New Roman,serif" font-size="14.00">waits for</text>
</g>
</g>
</svg>
